<?xml version="1.0" encoding="UTF-8"?>
<svg xmlns="http://www.w3.org/2000/svg"
     version="1.2" baseProfile="tiny-ps"
     viewBox="0 0 240 240" width="240" height="240">
  <title>EcoLogic</title>
  <defs>
    <linearGradient id="dropGrad" x1="0.5" y1="0" x2="0.5" y2="1">
      <stop offset="0%"   stop-color="#cce8f8"/>
      <stop offset="48%"  stop-color="#a8d8f2"/>
      <stop offset="100%" stop-color="#3ab4e6"/>
    </linearGradient>
    <linearGradient id="leafGrad" x1="0" y1="0" x2="1" y2="1">
      <stop offset="0%"   stop-color="#96dc2e"/>
      <stop offset="100%" stop-color="#5db020"/>
    </linearGradient>
    <clipPath id="dropClip">
      <path d="M 120,31 C 96,66 62,115 62,160 Q 62,210 120,210 Q 178,210 178,160 C 178,115 144,66 120,31 Z"/>
    </clipPath>
  </defs>

  <rect width="240" height="240" fill="white"/>

  <path d="M 120,18 C 94,54 50,104 50,160 Q 50,222 120,222 Q 190,222 190,160 C 190,104 146,54 120,18 Z"
        fill="#1c4e80"/>

  <path d="M 120,31 C 96,66 62,115 62,160 Q 62,210 120,210 Q 178,210 178,160 C 178,115 144,66 120,31 Z"
        fill="url(#dropGrad)"/>

  <circle cx="116" cy="168" r="58" fill="#35b5e8" clip-path="url(#dropClip)"/>

  <circle cx="116" cy="168" r="58" fill="none" stroke="#1c4e80" stroke-width="10" clip-path="url(#dropClip)"/>

  <ellipse cx="112" cy="151" rx="52" ry="25" fill="url(#leafGrad)" transform="rotate(-28,112,151)"/>

  <path d="M 68,168 Q 112,151 156,135" fill="none" stroke="#1c4e80" stroke-width="5" stroke-linecap="round"/>
</svg>
